<svg width="154" height="48" viewBox="0 0 154 48" fill="none" xmlns="http://www.w3.org/2000/svg">
<rect width="154" height="48" rx="6" fill="#EF6D58"/>
<path d="M34.4866 29.182C33.7213 29.182 33.0353 29.0607 32.4286 28.818C31.822 28.5707 31.3413 28.2043 30.9866 27.719C30.6366 27.2337 30.4616 26.6317 30.4616 25.913C30.4616 25.8523 30.4616 25.7917 30.4616 25.731C30.4616 25.6703 30.4616 25.6097 30.4616 25.549H33.2826C33.2826 25.6003 33.2826 25.6517 33.2826 25.703C33.2826 25.7543 33.2826 25.8057 33.2826 25.857C33.2826 26.1837 33.383 26.4567 33.5836 26.676C33.789 26.8953 34.0993 27.005 34.5146 27.005C34.916 27.005 35.231 26.9467 35.4596 26.83C35.693 26.7087 35.8096 26.5127 35.8096 26.242C35.8096 26.0413 35.7 25.8547 35.4806 25.682C35.266 25.5093 34.9743 25.346 34.6056 25.192C34.2416 25.038 33.8356 24.891 33.3876 24.751C32.9023 24.597 32.4403 24.3893 32.0016 24.128C31.5676 23.8667 31.213 23.5283 30.9376 23.113C30.6623 22.693 30.5246 22.1727 30.5246 21.552C30.5246 20.9127 30.702 20.3667 31.0566 19.914C31.4113 19.4567 31.8873 19.1067 32.4846 18.864C33.0866 18.6213 33.754 18.5 34.4866 18.5C35.2473 18.5 35.9263 18.619 36.5236 18.857C37.1256 19.095 37.6016 19.445 37.9516 19.907C38.3016 20.369 38.4766 20.9407 38.4766 21.622C38.4766 21.6827 38.4766 21.741 38.4766 21.797C38.4766 21.853 38.4766 21.9113 38.4766 21.972H35.6556C35.6556 21.9487 35.6556 21.9137 35.6556 21.867C35.6556 21.8157 35.6556 21.7783 35.6556 21.755C35.6556 21.4517 35.5693 21.195 35.3966 20.985C35.2286 20.775 34.937 20.67 34.5216 20.67C34.111 20.67 33.7936 20.7447 33.5696 20.894C33.3503 21.0433 33.2406 21.2603 33.2406 21.545C33.2406 21.7457 33.334 21.923 33.5206 22.077C33.7073 22.2263 33.964 22.3663 34.2906 22.497C34.622 22.6277 34.9953 22.7677 35.4106 22.917C36.036 23.1363 36.5843 23.379 37.0556 23.645C37.527 23.9063 37.8933 24.2353 38.1546 24.632C38.4206 25.0287 38.5536 25.5373 38.5536 26.158C38.5536 26.8067 38.3786 27.3573 38.0286 27.81C37.6786 28.258 37.1956 28.5987 36.5796 28.832C35.9683 29.0653 35.2706 29.182 34.4866 29.182ZM47.9957 25.325C47.9957 26.6083 47.6271 27.572 46.8897 28.216C46.1571 28.86 45.1607 29.182 43.9007 29.182C42.6407 29.182 41.6444 28.86 40.9117 28.216C40.1837 27.572 39.8197 26.6083 39.8197 25.325C39.8197 25.1617 39.8197 24.9913 39.8197 24.814C39.8197 24.632 39.8197 24.4453 39.8197 24.254V18.675H42.6477V24.695C42.6477 24.8257 42.6477 24.9493 42.6477 25.066C42.6477 25.1827 42.6477 25.2923 42.6477 25.395C42.6477 25.9177 42.7364 26.3167 42.9137 26.592C43.0957 26.8673 43.4247 27.005 43.9007 27.005C44.3767 27.005 44.7057 26.8673 44.8877 26.592C45.0744 26.3167 45.1677 25.9177 45.1677 25.395V18.675H47.9957V25.325ZM54.0554 18.675C54.8301 18.675 55.4554 18.7847 55.9314 19.004C56.4074 19.2233 56.7551 19.5243 56.9744 19.907C57.1938 20.285 57.3034 20.7143 57.3034 21.195C57.3034 21.685 57.2078 22.1097 57.0164 22.469C56.8251 22.8237 56.5848 23.1013 56.2954 23.302C56.0108 23.5027 55.7238 23.617 55.4344 23.645C55.7238 23.6543 56.0341 23.736 56.3654 23.89C56.7014 24.044 56.9861 24.2937 57.2194 24.639C57.4574 24.9843 57.5764 25.4487 57.5764 26.032C57.5764 26.564 57.4691 27.0563 57.2544 27.509C57.0398 27.957 56.6758 28.3187 56.1624 28.594C55.6538 28.8647 54.9514 29 54.0554 29H49.5404V18.675H54.0554ZM52.2284 23.421L51.3044 22.679H53.3204C53.7404 22.679 54.0391 22.5833 54.2164 22.392C54.3984 22.196 54.4894 21.9603 54.4894 21.685C54.4894 21.4937 54.4498 21.3303 54.3704 21.195C54.2958 21.0597 54.1721 20.957 53.9994 20.887C53.8268 20.8123 53.6004 20.775 53.3204 20.775H50.9544L52.2284 19.501V23.421ZM53.5024 26.893C53.9224 26.893 54.2258 26.7927 54.4124 26.592C54.6038 26.3867 54.6994 26.1417 54.6994 25.857C54.6994 25.717 54.6761 25.5817 54.6294 25.451C54.5828 25.3203 54.5104 25.2037 54.4124 25.101C54.3191 24.9983 54.1954 24.9167 54.0414 24.856C53.8921 24.7953 53.7124 24.765 53.5024 24.765H51.3044L52.2284 24.023V28.167L50.9544 26.893H53.5024ZM66.2783 18.675H71.0313V29H68.3503V20.18L68.3993 20.208L66.7963 29H63.1983L61.5463 20.187L61.5953 20.159V29H58.9073V18.675H63.6603L65.1023 27.922H64.8153L66.2783 18.675ZM72.6109 29V18.675H75.3969V29H72.6109ZM84.2059 20.775H80.5099L81.7839 19.501V29H78.9629V19.501L80.2369 20.775H76.5479V18.675H84.2059V20.775ZM91.6528 29H88.9018V18.675H93.2138L96.0628 28.153L95.5168 28.265V18.675H98.2678V29H93.9208L91.0718 19.557L91.6528 19.445V29ZM104.516 29.182C103.849 29.182 103.214 29.0677 102.612 28.839C102.015 28.6103 101.485 28.2697 101.023 27.817C100.561 27.3643 100.197 26.8043 99.9309 26.137C99.6649 25.4697 99.5319 24.6997 99.5319 23.827C99.5319 22.9497 99.6626 22.1797 99.9239 21.517C100.19 20.8543 100.552 20.299 101.009 19.851C101.471 19.403 102.001 19.067 102.598 18.843C103.2 18.6143 103.839 18.5 104.516 18.5C105.193 18.5 105.832 18.6143 106.434 18.843C107.036 19.067 107.566 19.403 108.023 19.851C108.485 20.299 108.847 20.8543 109.108 21.517C109.369 22.1797 109.5 22.9497 109.5 23.827C109.5 24.6997 109.367 25.4697 109.101 26.137C108.835 26.8043 108.469 27.3643 108.002 27.817C107.54 28.2697 107.008 28.6103 106.406 28.839C105.809 29.0677 105.179 29.182 104.516 29.182ZM104.516 26.998C104.861 26.998 105.195 26.9047 105.517 26.718C105.844 26.5267 106.11 26.2 106.315 25.738C106.525 25.276 106.63 24.639 106.63 23.827C106.63 23.0103 106.525 22.3757 106.315 21.923C106.105 21.4657 105.839 21.146 105.517 20.964C105.195 20.7773 104.861 20.684 104.516 20.684C104.175 20.684 103.842 20.7773 103.515 20.964C103.193 21.146 102.927 21.4657 102.717 21.923C102.507 22.3757 102.402 23.0103 102.402 23.827C102.402 24.6437 102.507 25.283 102.717 25.745C102.927 26.2023 103.193 26.5267 103.515 26.718C103.842 26.9047 104.175 26.998 104.516 26.998ZM111.349 29L109.921 18.675H112.826L113.722 28.559L113.323 28.538L114.772 18.675H118.223L119.665 28.538L119.266 28.559L120.162 18.675H123.067L121.639 29H117.32L116.361 20.509H116.641L115.675 29H111.349Z" fill="white"/>
</svg>
